<?xml version="1.0" encoding="iso-8859-1"?>
<!-- Uploaded to: SVG Repo, www.svgrepo.com, Generator: SVG Repo Mixer Tools -->
<svg version="1.1" id="Layer_1" xmlns="http://www.w3.org/2000/svg"
    xmlns:xlink="http://www.w3.org/1999/xlink"
    viewBox="0 0 512 512" xml:space="preserve" width="1024" height="1024">
<path style="fill:#FF7731;" d="M472.626,447.007H39.374c-15.831,0-28.666-12.834-28.666-28.666v-59.2h490.584v59.2
	C501.292,434.172,488.458,447.007,472.626,447.007z"/>
<g>
	<rect x="32.082" y="298.072" style="fill:#8C4F39;" width="447.837" height="61.069"/>
	<rect x="32.082" y="236.999" style="fill:#8C4F39;" width="447.837" height="61.069"/>
</g>
<path style="fill:#FF7731;" d="M501.292,237.003H10.708l0,0c0-94.998,77.011-172.01,172.01-172.01h146.565
	C424.281,64.993,501.292,142.006,501.292,237.003L501.292,237.003z"/>
<path d="M501.292,348.941h-11.175v-40.67h11.684c5.633,0,10.199-4.567,10.199-10.199c0-5.632-4.566-10.199-10.199-10.199h-11.684
	v-40.67h11.175c5.633,0,10.199-4.567,10.199-10.199c0-100.47-81.738-182.208-182.209-182.208H182.718
	c-100.47,0-182.209,81.738-182.209,182.208c0,5.632,4.566,10.199,10.199,10.199h11.175v40.67H10.199
	C4.566,287.872,0,292.44,0,298.072c0,5.632,4.566,10.199,10.199,10.199h11.684v40.67H10.708c-5.633,0-10.199,4.567-10.199,10.199
	v59.2c0,21.431,17.435,38.864,38.865,38.864h433.252c21.431,0,38.865-17.435,38.865-38.864v-59.2
	C511.491,353.508,506.925,348.941,501.292,348.941z M21.226,226.804c5.28-84.489,75.695-151.61,161.492-151.61h146.565
	c85.798,0,156.212,67.122,161.492,151.61H21.226z M469.718,247.202v40.67H42.282v-40.67H469.718z M42.282,308.271h427.437v40.67
	H42.282V308.271z M491.093,369.34v49.001c0,10.182-8.284,18.466-18.467,18.466H39.374c-10.183,0-18.467-8.284-18.467-18.466V369.34
	H491.093z"/>
<path d="M174.576,110.816h4.072c5.633,0,10.199-4.567,10.199-10.199s-4.566-10.199-10.199-10.199h-4.072
	c-5.633,0-10.199,4.567-10.199,10.199S168.943,110.816,174.576,110.816z"/>
<path d="M225.466,110.816h4.072c5.633,0,10.199-4.567,10.199-10.199s-4.566-10.199-10.199-10.199h-4.072
	c-5.633,0-10.199,4.567-10.199,10.199S219.833,110.816,225.466,110.816z"/>
<path d="M282.463,110.816h4.072c5.633,0,10.199-4.567,10.199-10.199s-4.566-10.199-10.199-10.199h-4.072
	c-5.633,0-10.199,4.567-10.199,10.199S276.83,110.816,282.463,110.816z"/>
<path d="M333.354,110.816h4.072c5.633,0,10.199-4.567,10.199-10.199s-4.566-10.199-10.199-10.199h-4.072
	c-5.633,0-10.199,4.567-10.199,10.199S327.721,110.816,333.354,110.816z"/>
<path d="M209.181,213.614h6.107c5.633,0,10.199-4.567,10.199-10.199s-4.566-10.199-10.199-10.199h-6.107
	c-5.633,0-10.199,4.567-10.199,10.199S203.548,213.614,209.181,213.614z"/>
<path d="M51.42,213.614h119.084c5.633,0,10.199-4.567,10.199-10.199s-4.566-10.199-10.199-10.199H51.42
	c-5.633,0-10.199,4.567-10.199,10.199S45.787,213.614,51.42,213.614z"/>
</svg>